# xmcd
#
# Track frame offsets:
#	150
#	20062
#	41174
#	57823
#	80402
#	119232
#	140829
#	154501
#	174581
#	206788
#	235362
#	254364
#
# Disc length: 3696 seconds
#
# Revision: 1
# Processed by: cddbd v1.5PL3 Copyright (c) Steve Scherf et al.
# Submitted via: EasyCDDAExtractor 6.5.0.1
#
DISCID=b20e6e0c
DTITLE=B.B. King and Eric Clapton - Riding with the King
DYEAR=2000
DGENRE=R&B
TTITLE0=Riding with the King
TTITLE1=Ten long years
TTITLE2=Key to the highway
TTITLE3=Marry you
TTITLE4=Three o'clock blues
TTITLE5=Help the poor
TTITLE6=I wanna be
TTITLE7=Worried life blues
TTITLE8=Days of old
TTITLE9=When my heart beats like a hammer
TTITLE10=Hold on I'm coming
TTITLE11=Come rain or come shine
EXTD=TTITLE0=B.B. King and Eric Clapton - Riding with the King\nTTITLE1=B.B. Kin
EXTD=g and Eric Clapton - Ten long years\nTTITLE2=B.B. King and Eric Clapton - Key
EXTD=to the highway\nTTITLE3=B.B. King and Eric Clapton - Marry you\nTTITLE4=B.
EXTD=B. King and Eric Clapton - Three o'clock blues\nTTITLE5=B.B. King and Eric Cl
EXTD=apton - Help the poor\nTTITLE6=B.B. King and Eric Clapton - I wanna be\nTTI
EXTD=TLE7=B.B. King and Eric Clapton - Worried life blues\nTTITLE8=B.B. King and E
EXTD=ric Clapton - Days of old\nTTITLE9=B.B. King and Eric Clapton - When my hea
EXTD=rt beats like a hammer\nTTITLE10=B.B. King and Eric Clapton - Hold on I'm c
EXTD=oming\nTTITLE11=B.B. King and Eric Clapton - Come rain or come shine
EXTT0=
EXTT1=
EXTT2=
EXTT3=
EXTT4=
EXTT5=
EXTT6=
EXTT7=
EXTT8=
EXTT9=
EXTT10=
EXTT11=
PLAYORDER=
